<svg width="22" height="24" viewBox="0 0 22 24" fill="none" xmlns="http://www.w3.org/2000/svg">
<path d="M18.1706 6.68855C16.2553 4.77323 13.7087 3.71841 11 3.71841H9.51327L11.8995 1.32628L10.57 0L5.92251 4.65886L10.5093 9.32236L11.8482 8.0055L9.47863 5.59631H11C15.5562 5.59631 19.2629 9.303 19.2629 13.8592C19.2629 18.4154 15.5562 22.1221 11 22.1221C6.44385 22.1221 2.73712 18.4154 2.73712 13.859V12.9201L0.859211 12.9202V13.8592C0.859211 16.5679 1.91404 19.1145 3.8294 21.0298C5.74471 22.9452 8.29133 24 11 24C13.7087 24 16.2553 22.9452 18.1706 21.0298C20.086 19.1145 21.1408 16.5679 21.1408 13.8592C21.1408 11.1505 20.086 8.60391 18.1706 6.68855Z" fill="#3A3A3C"/>
</svg>
